# xmcd
#
# Track frame offsets: 
#        150
#        22782
#        47325
#        75380
#        102402
#        119170
#        136422
#        163520
#        175412
#        194677
#        220882
#        245797
#        268682
#
# Disc length: 3779 seconds
#
# Revision: 1
# Processed by: cddbd v1.5.2PL0 Copyright (c) Steve Scherf et al.
# Submitted via: ExactAudioCopy v0.99pb5
#
DISCID=b80ec10d
DTITLE=e.s.t - Winter in Venice
DYEAR=1997
DGENRE=Jazz
TTITLE0=Calling Home 
TTITLE1=Winter In Venice 
TTITLE2=At Saturday 
TTITLE3=Semblance Suite In Three Or Four Movements I 
TTITLE4=Semblance Suite In Three Or Four Movements II 
TTITLE5=Semblance Suite In Three Or Four Movements III 
TTITLE6=Semblance Suite In Three Or Four Movements IV 
TTITLE7=Don't Cuddle That Crazy Cat 
TTITLE8=Damned Back Blues 
TTITLE9=In The Fall Of Things 
TTITLE10=As The Crow Flies 
TTITLE11=Second Page 
TTITLE12=Herkules Jonssons Låt 
EXTD=YEAR: 1997
EXTT0=
EXTT1=
EXTT2=
EXTT3=
EXTT4=
EXTT5=
EXTT6=
EXTT7=
EXTT8=
EXTT9=
EXTT10=
EXTT11=
EXTT12=
PLAYORDER=
